# xmcd CD database file
#
# Track frame offsets:
#	150
#	15554
#	28888
#	43482
#	65108
#	81942
#	114352
#	135534
#	153681
#	172434
#	188316
#	213825
#	231894
#	248060
#	266922
#	282815
#	297778
#	314033
#	326238
#
# Disc length: 4422 seconds
#
# Revision: 0
# Processed by: cddbd v1.5PL3 Copyright (c) Steve Scherf et al.
# Submitted via: CDex 1.51
#
DISCID=27114413
DTITLE=Ismael Rivera - Grandes Exitos
DYEAR=1900
DGENRE=Salsa
TTITLE0=Dueña De Mi Inspiración
TTITLE1=Incomprendido
TTITLE2=Soy Feliz
TTITLE3=Que Te Pasa A Ti
TTITLE4=Mi Jaragual
TTITLE5=Las Caras Lindas
TTITLE6=No Soy Para Ti
TTITLE7=No Quiero Pierdas En Mi Camino
TTITLE8=Me Tienes Loco
TTITLE9=Borinqueneando
TTITLE10=El Nazareno
TTITLE11=Las Tumbas
TTITLE12=Dime Por Que
TTITLE13=De Todas Maneras Rosas
TTITLE14=La Soledad
TTITLE15=Mi Negrita Me Espera
TTITLE16=Sale El Sol
TTITLE17=Son Son Sonero
TTITLE18=El Pañuelito
EXTD=
EXTT0=
EXTT1=
EXTT2=
EXTT3=
EXTT4=
EXTT5=
EXTT6=
EXTT7=
EXTT8=
EXTT9=
EXTT10=
EXTT11=
EXTT12=
EXTT13=
EXTT14=
EXTT15=
EXTT16=
EXTT17=
EXTT18=
PLAYORDER=
